<svg xmlns="http://www.w3.org/2000/svg" viewBox="0 0 1920 1080"><g transform="          rotate(21 960 540)           translate(-547.8518433279594 -308.1666618719771)          scale(1.5706790034666243)        "><rect width="1920" height="1080" fill="rgb(236, 227, 200)"></rect><g transform="translate(0, 0)"><path fill="rgb(230, 222, 196)" fill-opacity="1" d="M0,88.236L16,87.519C32,86.802,64,85.368,96,85.145C128,84.923,160,85.912,192,86.024C224,86.135,256,85.368,288,75.796C320,66.223,352,47.846,384,46.294C416,44.742,448,60.015,480,55.334C512,50.653,544,26.017,576,24.62C608,23.223,640,45.064,672,50.505C704,55.945,736,44.984,768,34.839C800,24.694,832,15.364,864,20.18C896,24.996,928,43.957,960,47.376C992,50.795,1024,38.672,1056,32.604C1088,26.535,1120,26.523,1152,35.319C1184,44.115,1216,61.719,1248,71.174C1280,80.629,1312,81.935,1344,71.169C1376,60.403,1408,37.566,1440,28.156C1472,18.746,1504,22.763,1536,31.568C1568,40.373,1600,53.966,1632,63.582C1664,73.199,1696,78.838,1728,75.129C1760,71.42,1792,58.363,1824,45.078C1856,31.793,1888,18.281,1904,11.524L1920,4.768L1920,1080L1904,1080C1888,1080,1856,1080,1824,1080C1792,1080,1760,1080,1728,1080C1696,1080,1664,1080,1632,1080C1600,1080,1568,1080,1536,1080C1504,1080,1472,1080,1440,1080C1408,1080,1376,1080,1344,1080C1312,1080,1280,1080,1248,1080C1216,1080,1184,1080,1152,1080C1120,1080,1088,1080,1056,1080C1024,1080,992,1080,960,1080C928,1080,896,1080,864,1080C832,1080,800,1080,768,1080C736,1080,704,1080,672,1080C640,1080,608,1080,576,1080C544,1080,512,1080,480,1080C448,1080,416,1080,384,1080C352,1080,320,1080,288,1080C256,1080,224,1080,192,1080C160,1080,128,1080,96,1080C64,1080,32,1080,16,1080L0,1080Z"></path></g><g transform="translate(0, 90)"><path fill="rgb(223, 216, 192)" fill-opacity="1" d="M0,0.669L16,9.587C32,18.504,64,36.339,96,41.946C128,47.552,160,40.928,192,34.044C224,27.16,256,20.016,288,18.064C320,16.112,352,19.353,384,21.652C416,23.951,448,25.308,480,33.264C512,41.22,544,55.775,576,65.688C608,75.6,640,80.869,672,84.03C704,87.19,736,88.242,768,82.156C800,76.07,832,62.845,864,52.324C896,41.802,928,33.983,960,27.159C992,20.335,1024,14.506,1056,23.118C1088,31.731,1120,54.786,1152,68.042C1184,81.297,1216,84.753,1248,86.604C1280,88.454,1312,88.699,1344,83.57C1376,78.441,1408,67.938,1440,61.379C1472,54.82,1504,52.206,1536,46.865C1568,41.523,1600,33.454,1632,39.827C1664,46.201,1696,67.016,1728,75.697C1760,84.377,1792,80.923,1824,79.941C1856,78.959,1888,80.449,1904,81.194L1920,81.939L1920,990L1904,990C1888,990,1856,990,1824,990C1792,990,1760,990,1728,990C1696,990,1664,990,1632,990C1600,990,1568,990,1536,990C1504,990,1472,990,1440,990C1408,990,1376,990,1344,990C1312,990,1280,990,1248,990C1216,990,1184,990,1152,990C1120,990,1088,990,1056,990C1024,990,992,990,960,990C928,990,896,990,864,990C832,990,800,990,768,990C736,990,704,990,672,990C640,990,608,990,576,990C544,990,512,990,480,990C448,990,416,990,384,990C352,990,320,990,288,990C256,990,224,990,192,990C160,990,128,990,96,990C64,990,32,990,16,990L0,990Z"></path></g><g transform="translate(0, 180)"><path fill="rgb(217, 211, 189)" fill-opacity="1" d="M0,67.094L16,57.223C32,47.352,64,27.61,96,29.975C128,32.339,160,56.808,192,62.368C224,67.927,256,54.577,288,43.224C320,31.872,352,22.517,384,22.324C416,22.132,448,31.1,480,43.598C512,56.096,544,72.124,576,73.085C608,74.046,640,59.941,672,51.63C704,43.318,736,40.8,768,34.108C800,27.415,832,16.548,864,10.986C896,5.424,928,5.167,960,10.059C992,14.952,1024,24.995,1056,38.606C1088,52.217,1120,69.396,1152,75.221C1184,81.046,1216,75.517,1248,63.138C1280,50.758,1312,31.527,1344,33.894C1376,36.26,1408,60.222,1440,63.966C1472,67.709,1504,51.232,1536,47.371C1568,43.509,1600,52.263,1632,52.802C1664,53.341,1696,45.666,1728,46.568C1760,47.469,1792,56.947,1824,61.557C1856,66.168,1888,65.911,1904,65.782L1920,65.654L1920,900L1904,900C1888,900,1856,900,1824,900C1792,900,1760,900,1728,900C1696,900,1664,900,1632,900C1600,900,1568,900,1536,900C1504,900,1472,900,1440,900C1408,900,1376,900,1344,900C1312,900,1280,900,1248,900C1216,900,1184,900,1152,900C1120,900,1088,900,1056,900C1024,900,992,900,960,900C928,900,896,900,864,900C832,900,800,900,768,900C736,900,704,900,672,900C640,900,608,900,576,900C544,900,512,900,480,900C448,900,416,900,384,900C352,900,320,900,288,900C256,900,224,900,192,900C160,900,128,900,96,900C64,900,32,900,16,900L0,900Z"></path></g><g transform="translate(0, 270)"><path fill="rgb(210, 205, 185)" fill-opacity="1" d="M0,39.893L16,41.709C32,43.524,64,47.156,96,48.93C128,50.705,160,50.624,192,49.741C224,48.858,256,47.173,288,45.694C320,44.216,352,42.943,384,36.89C416,30.836,448,20.001,480,13.531C512,7.061,544,4.956,576,7.962C608,10.968,640,19.086,672,24.189C704,29.292,736,31.38,768,31.854C800,32.327,832,31.185,864,33.853C896,36.521,928,42.998,960,47.666C992,52.334,1024,55.191,1056,59.665C1088,64.139,1120,70.229,1152,69.189C1184,68.149,1216,59.979,1248,51.531C1280,43.083,1312,34.357,1344,34.575C1376,34.792,1408,43.954,1440,42.498C1472,41.043,1504,28.972,1536,32.248C1568,35.524,1600,54.148,1632,57.804C1664,61.459,1696,50.147,1728,52.667C1760,55.187,1792,71.54,1824,78.433C1856,85.325,1888,82.756,1904,81.471L1920,80.187L1920,810L1904,810C1888,810,1856,810,1824,810C1792,810,1760,810,1728,810C1696,810,1664,810,1632,810C1600,810,1568,810,1536,810C1504,810,1472,810,1440,810C1408,810,1376,810,1344,810C1312,810,1280,810,1248,810C1216,810,1184,810,1152,810C1120,810,1088,810,1056,810C1024,810,992,810,960,810C928,810,896,810,864,810C832,810,800,810,768,810C736,810,704,810,672,810C640,810,608,810,576,810C544,810,512,810,480,810C448,810,416,810,384,810C352,810,320,810,288,810C256,810,224,810,192,810C160,810,128,810,96,810C64,810,32,810,16,810L0,810Z"></path></g><g transform="translate(0, 360)"><path fill="rgb(204, 200, 181)" fill-opacity="1" d="M0,44.628L16,49.827C32,55.026,64,65.425,96,64.571C128,63.717,160,51.609,192,46.631C224,41.652,256,43.803,288,39.093C320,34.384,352,22.815,384,24.697C416,26.579,448,41.913,480,40.059C512,38.204,544,19.162,576,16.242C608,13.322,640,26.523,672,38.731C704,50.938,736,62.152,768,55.703C800,49.254,832,25.142,864,23.803C896,22.464,928,43.899,960,47.286C992,50.674,1024,36.014,1056,32.196C1088,28.377,1120,35.399,1152,37.486C1184,39.572,1216,36.722,1248,42.123C1280,47.523,1312,61.173,1344,56.722C1376,52.272,1408,29.72,1440,28.33C1472,26.939,1504,46.71,1536,53.171C1568,59.632,1600,52.784,1632,55.251C1664,57.719,1696,69.502,1728,69.665C1760,69.829,1792,58.372,1824,45.485C1856,32.598,1888,18.28,1904,11.121L1920,3.963L1920,720L1904,720C1888,720,1856,720,1824,720C1792,720,1760,720,1728,720C1696,720,1664,720,1632,720C1600,720,1568,720,1536,720C1504,720,1472,720,1440,720C1408,720,1376,720,1344,720C1312,720,1280,720,1248,720C1216,720,1184,720,1152,720C1120,720,1088,720,1056,720C1024,720,992,720,960,720C928,720,896,720,864,720C832,720,800,720,768,720C736,720,704,720,672,720C640,720,608,720,576,720C544,720,512,720,480,720C448,720,416,720,384,720C352,720,320,720,288,720C256,720,224,720,192,720C160,720,128,720,96,720C64,720,32,720,16,720L0,720Z"></path></g><g transform="translate(0, 450)"><path fill="rgb(198, 194, 177)" fill-opacity="1" d="M0,40.21L16,46.639C32,53.068,64,65.926,96,62.288C128,58.65,160,38.516,192,28.791C224,19.066,256,19.75,288,27.902C320,36.053,352,51.672,384,61.998C416,72.324,448,77.356,480,73.508C512,69.659,544,56.929,576,55.984C608,55.038,640,65.877,672,65.567C704,65.256,736,53.797,768,52.944C800,52.09,832,61.844,864,64.18C896,66.517,928,61.436,960,54.436C992,47.435,1024,38.515,1056,33.371C1088,28.226,1120,26.857,1152,22.636C1184,18.415,1216,11.341,1248,19.936C1280,28.532,1312,52.796,1344,66.334C1376,79.872,1408,82.685,1440,72.291C1472,61.897,1504,38.295,1536,26.3C1568,14.305,1600,13.916,1632,12.911C1664,11.906,1696,10.285,1728,12.608C1760,14.93,1792,21.195,1824,24.982C1856,28.769,1888,30.076,1904,30.73L1920,31.384L1920,630L1904,630C1888,630,1856,630,1824,630C1792,630,1760,630,1728,630C1696,630,1664,630,1632,630C1600,630,1568,630,1536,630C1504,630,1472,630,1440,630C1408,630,1376,630,1344,630C1312,630,1280,630,1248,630C1216,630,1184,630,1152,630C1120,630,1088,630,1056,630C1024,630,992,630,960,630C928,630,896,630,864,630C832,630,800,630,768,630C736,630,704,630,672,630C640,630,608,630,576,630C544,630,512,630,480,630C448,630,416,630,384,630C352,630,320,630,288,630C256,630,224,630,192,630C160,630,128,630,96,630C64,630,32,630,16,630L0,630Z"></path></g><g transform="translate(0, 540)"><path fill="rgb(191, 189, 173)" fill-opacity="1" d="M0,20.204L16,19.911C32,19.618,64,19.032,96,22.826C128,26.621,160,34.796,192,41.591C224,48.387,256,53.804,288,61.504C320,69.204,352,79.188,384,71.721C416,64.254,448,39.338,480,26.966C512,14.593,544,14.766,576,15.211C608,15.655,640,16.372,672,26.031C704,35.69,736,54.291,768,59.86C800,65.429,832,57.966,864,54.465C896,50.965,928,51.427,960,47.725C992,44.022,1024,36.155,1056,41.854C1088,47.553,1120,66.817,1152,62.137C1184,57.458,1216,28.834,1248,20.042C1280,11.25,1312,22.29,1344,23.242C1376,24.193,1408,15.057,1440,19.418C1472,23.78,1504,41.639,1536,47.613C1568,53.587,1600,47.675,1632,39.081C1664,30.488,1696,19.212,1728,20.007C1760,20.803,1792,33.669,1824,38.902C1856,44.135,1888,41.735,1904,40.535L1920,39.335L1920,540L1904,540C1888,540,1856,540,1824,540C1792,540,1760,540,1728,540C1696,540,1664,540,1632,540C1600,540,1568,540,1536,540C1504,540,1472,540,1440,540C1408,540,1376,540,1344,540C1312,540,1280,540,1248,540C1216,540,1184,540,1152,540C1120,540,1088,540,1056,540C1024,540,992,540,960,540C928,540,896,540,864,540C832,540,800,540,768,540C736,540,704,540,672,540C640,540,608,540,576,540C544,540,512,540,480,540C448,540,416,540,384,540C352,540,320,540,288,540C256,540,224,540,192,540C160,540,128,540,96,540C64,540,32,540,16,540L0,540Z"></path></g><g transform="translate(0, 630)"><path fill="rgb(185, 183, 169)" fill-opacity="1" d="M0,72.641L16,65.597C32,58.553,64,44.465,96,38.647C128,32.83,160,35.283,192,42.661C224,50.039,256,62.342,288,58.207C320,54.072,352,33.5,384,26.278C416,19.056,448,25.184,480,33.327C512,41.469,544,51.626,576,59.776C608,67.925,640,74.067,672,76.745C704,79.424,736,78.64,768,65.546C800,52.452,832,27.048,864,18.914C896,10.781,928,19.919,960,25.689C992,31.459,1024,33.861,1056,35.396C1088,36.931,1120,37.598,1152,45.132C1184,52.665,1216,67.065,1248,66.748C1280,66.432,1312,51.398,1344,48.481C1376,45.564,1408,54.765,1440,55.607C1472,56.449,1504,48.933,1536,41.049C1568,33.166,1600,24.915,1632,29.89C1664,34.866,1696,53.069,1728,61.819C1760,70.569,1792,69.866,1824,62.814C1856,55.762,1888,42.361,1904,35.661L1920,28.961L1920,450L1904,450C1888,450,1856,450,1824,450C1792,450,1760,450,1728,450C1696,450,1664,450,1632,450C1600,450,1568,450,1536,450C1504,450,1472,450,1440,450C1408,450,1376,450,1344,450C1312,450,1280,450,1248,450C1216,450,1184,450,1152,450C1120,450,1088,450,1056,450C1024,450,992,450,960,450C928,450,896,450,864,450C832,450,800,450,768,450C736,450,704,450,672,450C640,450,608,450,576,450C544,450,512,450,480,450C448,450,416,450,384,450C352,450,320,450,288,450C256,450,224,450,192,450C160,450,128,450,96,450C64,450,32,450,16,450L0,450Z"></path></g><g transform="translate(0, 720)"><path fill="rgb(178, 178, 166)" fill-opacity="1" d="M0,44.826L16,40.811C32,36.796,64,28.767,96,34.644C128,40.52,160,60.304,192,69.656C224,79.009,256,77.93,288,71.547C320,65.165,352,53.479,384,53.651C416,53.822,448,65.852,480,68.38C512,70.908,544,63.934,576,55.902C608,47.869,640,38.777,672,43.623C704,48.468,736,67.25,768,68.567C800,69.884,832,53.736,864,48.071C896,42.406,928,47.225,960,45.503C992,43.782,1024,35.52,1056,41.454C1088,47.387,1120,67.516,1152,74.627C1184,81.739,1216,75.833,1248,66.5C1280,57.166,1312,44.406,1344,39.234C1376,34.063,1408,36.481,1440,38.517C1472,40.554,1504,42.209,1536,44.81C1568,47.411,1600,50.959,1632,51.178C1664,51.396,1696,48.284,1728,45.302C1760,42.319,1792,39.465,1824,43.402C1856,47.338,1888,58.065,1904,63.429L1920,68.792L1920,360L1904,360C1888,360,1856,360,1824,360C1792,360,1760,360,1728,360C1696,360,1664,360,1632,360C1600,360,1568,360,1536,360C1504,360,1472,360,1440,360C1408,360,1376,360,1344,360C1312,360,1280,360,1248,360C1216,360,1184,360,1152,360C1120,360,1088,360,1056,360C1024,360,992,360,960,360C928,360,896,360,864,360C832,360,800,360,768,360C736,360,704,360,672,360C640,360,608,360,576,360C544,360,512,360,480,360C448,360,416,360,384,360C352,360,320,360,288,360C256,360,224,360,192,360C160,360,128,360,96,360C64,360,32,360,16,360L0,360Z"></path></g><g transform="translate(0, 810)"><path fill="rgb(172, 172, 162)" fill-opacity="1" d="M0,53.467L16,47.099C32,40.731,64,27.994,96,24.251C128,20.507,160,25.756,192,29.111C224,32.465,256,33.926,288,36.376C320,38.826,352,42.264,384,41.061C416,39.859,448,34.015,480,31.233C512,28.451,544,28.73,576,29.662C608,30.594,640,32.179,672,32.204C704,32.229,736,30.694,768,34.718C800,38.742,832,48.325,864,46.193C896,44.062,928,30.214,960,25.257C992,20.299,1024,24.232,1056,30.746C1088,37.26,1120,46.356,1152,45.885C1184,45.414,1216,35.376,1248,30.688C1280,26,1312,26.662,1344,35.244C1376,43.826,1408,60.329,1440,60.95C1472,61.57,1504,46.308,1536,34.566C1568,22.823,1600,14.6,1632,16.257C1664,17.914,1696,29.452,1728,39.06C1760,48.669,1792,56.349,1824,64.206C1856,72.063,1888,80.097,1904,84.114L1920,88.13L1920,270L1904,270C1888,270,1856,270,1824,270C1792,270,1760,270,1728,270C1696,270,1664,270,1632,270C1600,270,1568,270,1536,270C1504,270,1472,270,1440,270C1408,270,1376,270,1344,270C1312,270,1280,270,1248,270C1216,270,1184,270,1152,270C1120,270,1088,270,1056,270C1024,270,992,270,960,270C928,270,896,270,864,270C832,270,800,270,768,270C736,270,704,270,672,270C640,270,608,270,576,270C544,270,512,270,480,270C448,270,416,270,384,270C352,270,320,270,288,270C256,270,224,270,192,270C160,270,128,270,96,270C64,270,32,270,16,270L0,270Z"></path></g><g transform="translate(0, 900)"><path fill="rgb(165, 166, 158)" fill-opacity="1" d="M0,10.716L16,23.249C32,35.782,64,60.847,96,66.867C128,72.886,160,59.861,192,47.894C224,35.927,256,25.019,288,18.291C320,11.563,352,9.015,384,12.036C416,15.056,448,23.644,480,36.597C512,49.55,544,66.867,576,61.496C608,56.125,640,28.066,672,16.719C704,5.373,736,10.74,768,22.952C800,35.164,832,54.222,864,64.972C896,75.723,928,78.165,960,73.003C992,67.84,1024,55.073,1056,46.902C1088,38.73,1120,35.155,1152,28.282C1184,21.409,1216,11.238,1248,14.129C1280,17.019,1312,32.971,1344,33.008C1376,33.045,1408,17.167,1440,23.734C1472,30.301,1504,59.313,1536,59.758C1568,60.203,1600,32.08,1632,23.87C1664,15.66,1696,27.363,1728,32.753C1760,38.144,1792,37.223,1824,35.945C1856,34.666,1888,33.031,1904,32.213L1920,31.396L1920,180L1904,180C1888,180,1856,180,1824,180C1792,180,1760,180,1728,180C1696,180,1664,180,1632,180C1600,180,1568,180,1536,180C1504,180,1472,180,1440,180C1408,180,1376,180,1344,180C1312,180,1280,180,1248,180C1216,180,1184,180,1152,180C1120,180,1088,180,1056,180C1024,180,992,180,960,180C928,180,896,180,864,180C832,180,800,180,768,180C736,180,704,180,672,180C640,180,608,180,576,180C544,180,512,180,480,180C448,180,416,180,384,180C352,180,320,180,288,180C256,180,224,180,192,180C160,180,128,180,96,180C64,180,32,180,16,180L0,180Z"></path></g><g transform="translate(0, 990)"><path fill="rgb(159, 161, 154)" fill-opacity="1" d="M0,28.171L16,35.498C32,42.824,64,57.478,96,54.132C128,50.787,160,29.444,192,26.542C224,23.64,256,39.18,288,49.212C320,59.243,352,63.767,384,58.465C416,53.162,448,38.034,480,29.977C512,21.919,544,20.933,576,21.282C608,21.631,640,23.316,672,22.261C704,21.206,736,17.41,768,17.7C800,17.99,832,22.366,864,33.349C896,44.332,928,61.923,960,69.219C992,76.516,1024,73.518,1056,64.398C1088,55.278,1120,40.036,1152,37.413C1184,34.79,1216,44.785,1248,46.893C1280,49,1312,43.219,1344,43.109C1376,43,1408,48.563,1440,53.878C1472,59.193,1504,64.262,1536,69.419C1568,74.576,1600,79.822,1632,76.566C1664,73.311,1696,61.555,1728,47.938C1760,34.321,1792,18.843,1824,20.949C1856,23.055,1888,42.745,1904,52.59L1920,62.434L1920,90L1904,90C1888,90,1856,90,1824,90C1792,90,1760,90,1728,90C1696,90,1664,90,1632,90C1600,90,1568,90,1536,90C1504,90,1472,90,1440,90C1408,90,1376,90,1344,90C1312,90,1280,90,1248,90C1216,90,1184,90,1152,90C1120,90,1088,90,1056,90C1024,90,992,90,960,90C928,90,896,90,864,90C832,90,800,90,768,90C736,90,704,90,672,90C640,90,608,90,576,90C544,90,512,90,480,90C448,90,416,90,384,90C352,90,320,90,288,90C256,90,224,90,192,90C160,90,128,90,96,90C64,90,32,90,16,90L0,90Z"></path></g></g></svg>