
<svg id="wave" style="transform:rotate(0deg); transition: 0.3s" viewBox="0 0 1440 490" version="1.1" xmlns="http://www.w3.org/2000/svg"><defs><linearGradient id="sw-gradient-0" x1="0" x2="0" y1="1" y2="0"><stop stop-color="rgba(255, 212, 178, 0.6549019607843137)" offset="0%"></stop><stop stop-color="rgba(255, 212, 178, 0.6549019607843137)" offset="100%"></stop></linearGradient></defs><path style="transform:translate(0, 0px); opacity:1" fill="url(#sw-gradient-0)" d="M0,0L18.5,73.5C36.9,147,74,294,111,343C147.7,392,185,343,222,294C258.5,245,295,196,332,220.5C369.2,245,406,343,443,343C480,343,517,245,554,171.5C590.8,98,628,49,665,40.8C701.5,33,738,65,775,122.5C812.3,180,849,261,886,302.2C923.1,343,960,343,997,294C1033.8,245,1071,147,1108,163.3C1144.6,180,1182,310,1218,318.5C1255.4,327,1292,212,1329,179.7C1366.2,147,1403,196,1440,253.2C1476.9,310,1514,376,1551,343C1587.7,310,1625,180,1662,163.3C1698.5,147,1735,245,1772,261.3C1809.2,278,1846,212,1883,196C1920,180,1957,212,1994,196C2030.8,180,2068,114,2105,98C2141.5,82,2178,114,2215,138.8C2252.3,163,2289,180,2326,155.2C2363.1,131,2400,65,2437,98C2473.8,131,2511,261,2548,269.5C2584.6,278,2622,163,2640,106.2L2658.5,49L2658.5,490L2640,490C2621.5,490,2585,490,2548,490C2510.8,490,2474,490,2437,490C2400,490,2363,490,2326,490C2289.2,490,2252,490,2215,490C2178.5,490,2142,490,2105,490C2067.7,490,2031,490,1994,490C1956.9,490,1920,490,1883,490C1846.2,490,1809,490,1772,490C1735.4,490,1698,490,1662,490C1624.6,490,1588,490,1551,490C1513.8,490,1477,490,1440,490C1403.1,490,1366,490,1329,490C1292.3,490,1255,490,1218,490C1181.5,490,1145,490,1108,490C1070.8,490,1034,490,997,490C960,490,923,490,886,490C849.2,490,812,490,775,490C738.5,490,702,490,665,490C627.7,490,591,490,554,490C516.9,490,480,490,443,490C406.2,490,369,490,332,490C295.4,490,258,490,222,490C184.6,490,148,490,111,490C73.8,490,37,490,18,490L0,490Z"></path></svg>